<svg xmlns="http://www.w3.org/2000/svg" width="256" height="256" fill="none" viewBox="0 0 256 256">
<!-- SVG created with Arrow, by QuiverAI (https://quiver.ai) -->
  <path d="m130 194v40.65h40.04v-7.51h-27.56v-9.55h23.61v-7.61h-23.61v-7.92h26.51v-8.06h-38.99z" fill="url(#paint0_linear_1135_23781)"/>
  <path d="m176.3 194 16.12 18.96-17.1 21.69h13.26l10.12-13.89 11.03 13.89h13.91l-17.91-21.69 16.69-18.96h-13.15l-10.57 13.28-9.73-13.28h-12.67z" fill="url(#paint1_linear_1135_23781)"/>
  <path d="m39.44 182.6c9.67 4.84 16.77 6.27 27.47 6.27v45.52h-27.47v-51.79z" fill="url(#paint2_linear_1135_23781)"/>
  <path d="m123.6 53.84h-55.17c-33.18 0-60.88 28.33-60.88 64.26 0 31.74 24.38 63.21 61.11 63.21h14.27l12.88-0.08 27.79-36.5v-39.63h-40.72l-24.29 27.22h37.17v20.64h-26.18c-18.69 0-34.4-15.69-34.4-34.86s14.83-36.47 35.63-36.47h29.97l22.82-27.79z" fill="url(#paint3_linear_1135_23781)"/>
  <path d="m12.81 143.5c1.92-27.11 17.35-48.74 45.17-60.21-18.22 5.16-28.51 20.57-22.84 45.6 6.06 26.62 22.4 43.26 42.31 52.05h-8.75c-25.74 0.13-46.52-13.63-55.89-37.44z" fill="url(#paint4_linear_1135_23781)"/>
  <path d="m131.9 53.84h43.61c6.43 0 10.11 0.9 14.24 1.81l-21.95 25.62h-8.61l-27.29-27.43z" fill="url(#paint5_linear_1135_23781)"/>
  <path d="m131.9 53.84v69.06l27.28-32.44v-9.19l-27.28-27.43z" fill="url(#paint6_linear_1135_23781)"/>
  <path d="m226.5 82.12-20.34 22.6c1.69 4.49 2.31 7.99 2.31 13.06 0 19.66-15.35 35.18-34.46 35.18h-21.36l72.56-81.9 15.54 14.64 7.9-65.7-61.76 19.2 15.06 13-72.23 128.5h43.92c33.51 0 63.58-28.29 63.58-62.57 0-14.28-4.1-26.15-10.72-35.98z" fill="url(#paint7_linear_1135_23781)"/>
  <path d="m248.6 20-125 147.8v12.86h6.05l95.41-109.7 15.53 14.64 7.99-65.58z" fill="url(#paint8_linear_1135_23781)"/>
  <path d="m208 117.8c-1.26 18.19-15.57 56.31-48.87 63.14h14.49c33.51 0 63.21-28.54 63.21-62.82 0-13.13-3.88-25.28-10.35-35.58l-20.45 22.2c1.7 4.49 2.42 7.99 1.97 13.06z" fill="url(#paint9_linear_1135_23781)"/>
  <path d="m47.08 234.4 76.8-90.53v37.03l-38.96 53.5h-37.84z" fill="url(#paint10_linear_1135_23781)"/>
  <path d="m93.29 181.3 30.34-37.42v37.03l-10.3 0.31-20.04 0.08z" fill="url(#paint11_linear_1135_23781)"/>
  <path d="m82.78 105.1h40.85l-27.25 27.22h-37.76l24.16-27.22z" fill="url(#paint12_linear_1135_23781)"/>
  <defs>
    <linearGradient id="paint0_linear_1135_23781" x1="130.6" x2="169.7" y1="214.4" y2="214.4" gradientUnits="userSpaceOnUse">
      <stop stop-color="#8976B7" offset="0"/>
      <stop stop-color="#816DBA" offset="1"/>
    </linearGradient>
    <linearGradient id="paint1_linear_1135_23781" x1="175.6" x2="223" y1="214.3" y2="214.3" gradientUnits="userSpaceOnUse">
      <stop stop-color="#8976B7" offset="0"/>
      <stop stop-color="#816DBA" offset="1"/>
    </linearGradient>
    <linearGradient id="paint2_linear_1135_23781" x1="45.53" x2="59.08" y1="182.6" y2="233.2" gradientUnits="userSpaceOnUse">
      <stop stop-color="#B691D1" offset="0"/>
      <stop stop-color="#E7B7EE" offset="1"/>
    </linearGradient>
    <linearGradient id="paint3_linear_1135_23781" x1="39.28" x2="88.39" y1="53.84" y2="178.2" gradientUnits="userSpaceOnUse">
      <stop stop-color="#E4B6EC" offset="0"/>
      <stop stop-color="#CE98E0" offset="1"/>
    </linearGradient>
    <linearGradient id="paint4_linear_1135_23781" x1="44.98" x2="44.98" y1="83.31" y2="181" gradientUnits="userSpaceOnUse">
      <stop stop-color="#8576C6" offset="0"/>
      <stop stop-color="#AC94D4" offset="1"/>
    </linearGradient>
    <linearGradient id="paint5_linear_1135_23781" x1="131.9" x2="189.7" y1="67.56" y2="67.56" gradientUnits="userSpaceOnUse">
      <stop stop-color="#D9A9E1" offset="0"/>
      <stop stop-color="#A995D5" offset="1"/>
    </linearGradient>
    <linearGradient id="paint6_linear_1135_23781" x1="131.9" x2="159.1" y1="88.37" y2="88.37" gradientUnits="userSpaceOnUse">
      <stop stop-color="#9B89CE" offset="0"/>
      <stop stop-color="#9B90D2" offset="1"/>
    </linearGradient>
    <linearGradient id="paint7_linear_1135_23781" x1="187.1" x2="187.1" y1="20" y2="180.7" gradientUnits="userSpaceOnUse">
      <stop stop-color="#E7B7EE" offset="0"/>
      <stop stop-color="#8676C6" offset="1"/>
    </linearGradient>
    <linearGradient id="paint8_linear_1135_23781" x1="186.1" x2="186.1" y1="20" y2="180.7" gradientUnits="userSpaceOnUse">
      <stop stop-color="#9187CE" offset="0"/>
      <stop stop-color="#9B89CE" offset="1"/>
    </linearGradient>
    <linearGradient id="paint9_linear_1135_23781" x1="221.4" x2="206.7" y1="82.52" y2="179.8" gradientUnits="userSpaceOnUse">
      <stop stop-color="#D2B0E5" offset="0"/>
      <stop stop-color="#9F8BD2" offset="1"/>
    </linearGradient>
    <linearGradient id="paint10_linear_1135_23781" x1="85.48" x2="85.48" y1="143.9" y2="234.4" gradientUnits="userSpaceOnUse">
      <stop stop-color="#9B89CE" offset="0"/>
      <stop stop-color="#B09CDB" offset="1"/>
    </linearGradient>
    <linearGradient id="paint11_linear_1135_23781" x1="108.5" x2="108.5" y1="143.9" y2="181.2" gradientUnits="userSpaceOnUse">
      <stop stop-color="#E7B7EE" offset="0"/>
      <stop stop-color="#E9B5EA" offset="1"/>
    </linearGradient>
    <linearGradient id="paint12_linear_1135_23781" x1="91.13" x2="91.13" y1="105.1" y2="132.3" gradientUnits="userSpaceOnUse">
      <stop stop-color="#D0A8E0" offset="0"/>
      <stop stop-color="#B398D6" offset="1"/>
    </linearGradient>
  </defs>
</svg>